Coordinates
version=1
nRows=24
nColumns=24
inDegrees=yes

Units are S.I. units (second, meters, Newtons, ...)
Angles are in degrees.

endheader
time	pelvis_tilt	pelvis_list	pelvis_rotation	pelvis_tx	pelvis_ty	pelvis_tz	hip_flexion_r	hip_adduction_r	hip_rotation_r	knee_angle_r	ankle_angle_r	subtalar_angle_r	mtp_angle_r	hip_flexion_l	hip_adduction_l	hip_rotation_l	knee_angle_l	ankle_angle_l	subtalar_angle_l	mtp_angle_l	lumbar_extension	lumbar_bending	lumbar_rotation
      6.11000000	      6.03031118	      0.06732117	      5.08987031	     -1.48456140	      0.88715537	      0.33207529	    -28.82821993	      6.25156929	    -12.19111110	     -9.64394603	     19.57613952	     10.10130450	      0.00000000	     14.56600206	      6.62755208	      9.85748444	     -2.44972129	      2.51492670	    -18.26351193	      0.00000000	    -18.32258396	      1.98369753	      1.92216949
      6.12000000	      6.06944534	      0.50745421	      5.12648936	     -1.46806861	      0.88625120	      0.33059400	    -28.19353684	      5.24240077	    -14.25522071	    -12.68340099	     18.39613116	     11.67542340	      0.00000000	     15.30601218	      7.49466042	      8.70827899	     -5.39322204	      2.43323161	    -17.04898104	      0.00000000	    -18.13536942	      1.43311113	      1.51989563
      6.13000000	      6.14885936	      0.96483134	      5.12666205	     -1.45180634	      0.88561468	      0.32921993	    -27.37794421	      4.08577814	    -16.00298066	    -16.04551705	     16.62788080	     12.74137811	      0.00000000	     16.09922971	      8.24729073	      7.19084879	     -8.49108233	      2.73032647	    -15.35558124	      0.00000000	    -18.06119421	      0.83255173	      1.12460078
      6.14000000	      6.27824390	      1.39273943	      5.12275306	     -1.43585324	      0.88521509	      0.32795876	    -26.39284563	      2.88760994	    -17.28705562	    -19.66171208	     14.11222747	     13.08680324	      0.00000000	     16.92613740	      8.84476739	      5.63752993	    -11.73814984	      3.51243338	    -13.51351571	      0.00000000	    -18.11039111	      0.24657470	      0.70240452
      6.15000000	      6.53472488	      1.80809178	      5.06438600	     -1.42021678	      0.88511391	      0.32683263	    -25.29684330	      1.60272182	    -18.23134843	    -23.55297094	     11.05000697	     13.13432878	      0.00000000	     17.61762296	      9.31830866	      4.24009081	    -15.00731290	      4.57718787	    -11.95616098	      0.00000000	    -18.37009073	     -0.33784231	      0.29775398
      6.16000000	      6.86922412	      2.13133123	      5.02590818	     -1.40493079	      0.88517803	      0.32574400	    -24.05339757	      0.38100975	    -18.82611818	    -27.63163568	      7.42866662	     12.77306611	      0.00000000	     18.18136798	      9.65170215	      3.17244691	    -18.24721327	      6.05662422	    -10.59013515	      0.00000000	    -18.76072967	     -0.79670910	     -0.13850063
      6.17000000	      7.31896849	      2.41451059	      4.95447839	     -1.38995483	      0.88545769	      0.32474843	    -22.72748020	     -0.82126168	    -19.09711107	    -31.84479213	      3.55319256	     12.19499351	      0.00000000	     18.45784631	      9.90003656	      2.30670507	    -21.25106846	      7.81381510	     -9.39167957	      0.00000000	    -19.31342536	     -1.19826032	     -0.53962694
      6.18000000	      7.72675379	      2.63724649	      4.85858673	     -1.37524706	      0.88575244	      0.32378372	    -21.16778242	     -1.98312174	    -19.12124534	    -36.15683131	     -0.20184630	     11.58149945	      0.00000000	     18.53780213	     10.08386371	      1.64693422	    -23.87900170	      9.72487413	     -8.38203452	      0.00000000	    -19.80947005	     -1.51765179	     -0.94889374
      6.19000000	      8.04296097	      2.84579643	      4.71289601	     -1.36077325	      0.88606258	      0.32287642	    -19.35735001	     -3.12352653	    -18.89657077	    -40.49533848	     -3.45636113	     10.95195315	      0.00000000	     18.39307340	     10.24722022	      1.08879044	    -25.97562001	     11.66797947	     -7.52204071	      0.00000000	    -20.17750868	     -1.81915320	     -1.39507548
      6.20000000	      8.23496135	      3.03322076	      4.53484659	     -1.34654878	      0.88639583	      0.32201437	    -17.30429298	     -4.21350264	    -18.51388049	    -44.77037305	     -5.87809363	     10.40282029	      0.00000000	     18.07286375	     10.37014015	      0.51945687	    -27.54532703	     13.58644690	     -6.67731589	      0.00000000	    -20.38346553	     -2.09958475	     -1.75152719
      6.21000000	      8.29676794	      3.24648123	      4.27648465	     -1.33249514	      0.88687500	      0.32127765	    -15.03466902	     -5.25438073	    -17.88502595	    -48.89022115	     -7.22702139	      9.90228360	      0.00000000	     17.54113015	     10.49844032	     -0.05452267	    -28.50090558	     15.35356707	     -5.93176386	      0.00000000	    -20.40116101	     -2.42839075	     -2.15700031
      6.22000000	      8.26049202	      3.45036532	      3.97966495	     -1.31860743	      0.88758483	      0.32061662	    -12.62188167	     -6.18963770	    -17.11660065	    -52.76314707	     -7.45514572	      9.50351684	      0.00000000	     16.83545558	     10.59682772	     -0.65152547	    -28.95823990	     16.98571894	     -5.19409596	      0.00000000	    -20.27319071	     -2.75084371	     -2.53215219
      6.23000000	      8.16689180	      3.62841979	      3.65500459	     -1.30486508	      0.88865781	      0.32008222	    -10.13641936	     -6.95236811	    -16.19430431	    -56.30070711	     -6.65426376	      9.16077927	      0.00000000	     15.96240923	     10.65001882	     -1.25268753	    -28.99718445	     18.43140730	     -4.44019102	      0.00000000	    -20.04264444	     -3.05636702	     -2.94904715
      6.24000000	      8.05249792	      3.76063101	      3.32390118	     -1.29123284	      0.89016061	      0.31958379	     -7.64426746	     -7.53209243	    -15.18578504	    -59.45942382	     -4.92757293	      9.05969692	      0.00000000	     14.92188512	     10.68324506	     -1.72019074	    -28.68512311	     19.60678708	     -3.87301409	      0.00000000	    -19.75213150	     -3.29729007	     -3.35450268
      6.25000000	      7.94775567	      3.82326626	      3.03876364	     -1.27771273	      0.89213239	      0.31909337	     -5.20999458	     -7.89443332	    -14.17034478	    -62.18818653	     -2.66603581	      9.03120705	      0.00000000	     13.74222500	     10.67583195	     -2.04194378	    -28.13217783	     20.54859930	     -3.40636830	      0.00000000	    -19.44724631	     -3.43788321	     -3.82122829
      6.26000000	      7.86302848	      3.80569533	      2.83448010	     -1.26429877	      0.89455218	      0.31855183	     -2.87003586	     -8.04871009	    -13.21796320	    -64.47309132	     -0.15937491	      9.05064413	      0.00000000	     12.43758105	     10.63831645	     -2.13386952	    -27.38726062	     21.23220268	     -3.13676034	      0.00000000	    -19.14908659	     -3.45583943	     -4.35646145
      6.27000000	      7.81954879	      3.71276935	      2.71925604	     -1.25099495	      0.89738735	      0.31793556	     -0.66233548	     -8.02418122	    -12.36280833	    -66.31832118	      2.30826635	      9.05720583	      0.00000000	     11.00255163	     10.57472615	     -1.98323922	    -26.47962265	     21.66817621	     -3.09396385	      0.00000000	    -18.89251044	     -3.35596121	     -4.96395678
      6.28000000	      7.72685564	      3.52868723	      2.74728119	     -1.23778716	      0.90043672	      0.31716677	      1.48867492	     -7.83304490	    -11.67428278	    -67.73783899	      4.53938336	      8.95319947	      0.00000000	      9.54805977	     10.47426686	     -1.53011755	    -25.44155833	     21.87361318	     -3.27497777	      0.00000000	    -18.57095884	     -3.11313937	     -5.67722952
      6.29000000	      7.61433860	      3.27229880	      2.88899151	     -1.22465702	      0.90365390	      0.31627436	      3.54306211	     -7.51995134	    -11.13965148	    -68.74431457	      6.42550844	      8.69010804	      0.00000000	      8.03653111	     10.32868701	     -0.84121708	    -24.25580913	     21.86685668	     -3.65125601	      0.00000000	    -18.21956459	     -2.75890131	     -6.44390889
      6.30000000	      7.45380518	      2.96568518	      3.10632144	     -1.21165302	      0.90688108	      0.31530642	      5.55501995	     -7.11647499	    -10.70132644	    -69.38674170	      7.87225421	      8.17198861	      0.00000000	      6.52027914	     10.15047962	      0.05474615	    -22.94527807	     21.63592357	     -4.33415767	      0.00000000	    -17.82661027	     -2.33281148	     -7.29575056
      6.31000000	      7.27713678	      2.63860091	      3.33721600	     -1.19874752	      0.91006660	      0.31435072	      7.49339136	     -6.66369809	    -10.30315958	    -69.68772074	      8.98775471	      7.44332184	      0.00000000	      4.96522592	      9.93283466	      1.00328234	    -21.50115641	     21.22911884	     -5.11571903	      0.00000000	    -17.42955228	     -1.89407762	     -8.08714608
      6.32000000	      7.02862670	      2.26642388	      3.59434698	     -1.18593647	      0.91304229	      0.31340836	      9.41808617	     -6.15067536	     -9.96241017	    -69.66752383	      9.83758281	      6.59797199	      0.00000000	      3.48222367	      9.63176946	      1.88741835	    -20.00764447	     20.80985606	     -5.84706929	      0.00000000	    -16.95624485	     -1.40834983	     -8.89855572
      6.33000000	      6.73709970	      1.88991644	      3.83501865	     -1.17321757	      0.91578064	      0.31251533	     11.30447152	     -5.62733279	     -9.63605005	    -69.34883584	     10.52998903	      5.69625192	      0.00000000	      2.03805288	      9.29952848	      2.69879478	    -18.45587944	     20.30975097	     -6.60474530	      0.00000000	    -16.45119939	     -0.93055032	     -9.65781768
      6.34000000	      6.43926305	      1.51964262	      4.03591746	     -1.16058453	      0.91828192	      0.31168231	     13.11198079	     -5.11142623	     -9.30504145	    -68.74308189	     11.18897402	      4.90702333	      0.00000000	      0.59363524	      8.95996935	      3.46595716	    -16.84712646	     19.66597439	     -7.55679437	      0.00000000	    -15.96058705	     -0.46710901	    -10.36996955
